<?xml version="1.0" encoding="iso-8859-1"?>
<!-- Generator: Adobe Illustrator 19.0.0, SVG Export Plug-In . SVG Version: 6.00 Build 0)  -->
<svg version="1.1" id="Layer_1" xmlns="http://www.w3.org/2000/svg" xmlns:xlink="http://www.w3.org/1999/xlink" x="0px" y="0px"
	 viewBox="0 0 512.001 512.001" style="enable-background:new 0 0 512.001 512.001;" xml:space="preserve">
<path style="fill:#FFB270;" d="M476.541,471.239H35.457c-19.72,0-32.019-21.378-22.107-38.426L233.891,53.481
	c9.86-16.959,34.355-16.959,44.215,0l220.542,379.332C508.56,449.861,496.26,471.239,476.541,471.239z"/>
<g>
	<polygon style="fill:#F08E6B;" points="236.337,155.786 236.337,332.745 275.661,332.745 275.661,263.931 275.661,204.944 
		275.661,155.786 	"/>
	<circle style="fill:#F08E6B;" cx="256.002" cy="381.897" r="19.662"/>
</g>
<path d="M507.147,427.872L286.605,48.54c-6.411-11.027-17.852-17.609-30.606-17.609s-24.196,6.583-30.606,17.609L4.85,427.872
	c-0.026,0.043-0.046,0.088-0.072,0.133c-0.045,0.08-0.087,0.16-0.131,0.242c-6.232,11.008-6.201,24.086,0.121,35.075
	c6.394,11.114,17.866,17.749,30.688,17.749h441.083c12.822,0,24.293-6.635,30.688-17.749
	C513.622,452.209,513.591,438.956,507.147,427.872z M490.184,453.516c-2.843,4.941-7.943,7.891-13.645,7.891H35.457
	c-5.701,0-10.801-2.95-13.645-7.891c-1.943-3.377-2.55-7.197-1.827-10.851l39.36,0.125c0.011,0,0.021,0,0.031,0
	c5.415,0,9.813-4.382,9.831-9.801c0.018-5.429-4.37-9.845-9.8-9.862l-29.004-0.092L242.391,58.423
	c2.85-4.903,7.938-7.83,13.608-7.83c5.671,0,10.758,2.928,13.608,7.83l220.542,379.332
	C493.015,442.682,493.027,448.574,490.184,453.516z"/>
<path d="M275.661,224.609c-2.586,0-5.122,1.043-6.951,2.872c-1.829,1.837-2.88,4.374-2.88,6.959c0,2.587,1.052,5.122,2.88,6.951
	c1.829,1.829,4.365,2.88,6.951,2.88s5.122-1.051,6.951-2.88c1.829-1.838,2.88-4.364,2.88-6.951c0-2.586-1.052-5.122-2.88-6.959
	C280.783,225.651,278.247,224.609,275.661,224.609z"/>
<path d="M275.661,145.954h-39.324c-5.43,0-9.831,4.402-9.831,9.831v176.959c0,5.429,4.401,9.831,9.831,9.831h39.324
	c5.43,0,9.831-4.402,9.831-9.831v-68.812c0-5.429-4.401-9.831-9.831-9.831c-5.43,0-9.831,4.402-9.831,9.831v58.981h-19.662V165.616
	h19.662v39.328c0,5.429,4.401,9.831,9.831,9.831c5.43,0,9.831-4.402,9.831-9.831v-49.159
	C285.492,150.356,281.091,145.954,275.661,145.954z"/>
<path d="M255.999,352.406c-16.263,0-29.493,13.231-29.493,29.493s13.231,29.493,29.493,29.493s29.493-13.231,29.493-29.493
	S272.261,352.406,255.999,352.406z M255.999,391.73c-5.421,0-9.831-4.41-9.831-9.831s4.41-9.831,9.831-9.831s9.831,4.41,9.831,9.831
	S261.42,391.73,255.999,391.73z"/>
<path d="M88.871,423.129c-2.586,0-5.122,1.051-6.951,2.88c-1.829,1.829-2.88,4.365-2.88,6.951s1.052,5.122,2.88,6.95
	c1.829,1.829,4.365,2.882,6.951,2.882s5.122-1.052,6.951-2.882c1.829-1.828,2.88-4.364,2.88-6.95s-1.052-5.122-2.88-6.951
	S91.457,423.129,88.871,423.129z"/>
<g>
</g>
<g>
</g>
<g>
</g>
<g>
</g>
<g>
</g>
<g>
</g>
<g>
</g>
<g>
</g>
<g>
</g>
<g>
</g>
<g>
</g>
<g>
</g>
<g>
</g>
<g>
</g>
<g>
</g>
</svg>
