<?xml version="1.0" encoding="iso-8859-1"?>
<!-- Generator: Adobe Illustrator 19.0.0, SVG Export Plug-In . SVG Version: 6.00 Build 0)  -->
<svg version="1.1" id="Capa_1" xmlns="http://www.w3.org/2000/svg" xmlns:xlink="http://www.w3.org/1999/xlink" x="0px" y="0px"
	 viewBox="0 0 512 512" style="enable-background:new 0 0 512 512;" xml:space="preserve">
<path style="fill:#69E041;" d="M354.002,134.398h72.903l0,0c-28.171-1.044-50.472-24.185-50.472-52.376V72.71
	c0-35.036-29.207-63.249-64.601-61.621c-24.755,1.139-45.858,17.125-54.539,39.189"/>
<path style="fill:#4FA831;" d="M356.787,159.888c0.152-2.668,0.202-5.363,0.148-8.08C355.82,96.534,310.637,51.627,255.358,50.833
	c-57.643-0.827-104.63,45.65-104.63,103.103c0,1.175,0.02,2.346,0.059,3.512c1.135,33.884-9.223,66.989-28.902,94.596
	c-18.629,26.134-29.587,58.112-29.588,92.652c0,88.51,71.186,159.756,159.696,159.827c88.331,0.071,159.958-71.513,159.958-159.826
	c0-33.786-10.486-65.121-28.38-90.932C364.49,226.24,354.883,193.324,356.787,159.888z"/>
<path style="fill:#DCEA5C;" d="M327.824,154.088c0.006-0.462,0.008-0.924,0.006-1.389c-0.206-40.214-32.759-73.411-72.962-74.36
	c-42.123-0.995-76.582,32.854-76.582,74.752c0,0.601,0.007,1.201,0.021,1.799c1.004,42.508-11.999,83.987-35.128,119.664
	c-12.966,19.998-20.618,43.76-20.96,69.287c-0.969,72.286,57.602,132.125,129.892,132.638c72.702,0.514,131.8-58.266,131.8-130.849
	c0-26.022-7.596-50.267-20.692-70.643C340.015,238.887,327.263,196.999,327.824,154.088z"/>
<ellipse style="fill:#BB7920;" cx="253.839" cy="351.572" rx="54.993" ry="67.026"/>
<path style="fill:#F9A12B;" d="M219.411,372.072c0-37.016,24.622-67.024,54.994-67.024c8.412,0,16.38,2.31,23.51,6.425
	c-10.029-16.346-26.037-26.928-44.072-26.928c-30.373,0-54.994,30.008-54.994,67.024c0,26.764,12.875,49.855,31.484,60.599
	C223.473,400.987,219.411,387.109,219.411,372.072z"/>
<path d="M253.842,426.072c-34.447,0-62.471-33.421-62.471-74.502s28.024-74.502,62.471-74.502s62.471,33.42,62.471,74.502
	S288.289,426.072,253.842,426.072z M253.842,292.023c-26.2,0-47.517,26.712-47.517,59.547s21.316,59.547,47.517,59.547
	s47.517-26.713,47.517-59.547S280.042,292.023,253.842,292.023z"/>
<path style="fill:#FFFFFF;" d="M232.496,356.846h-14.955c0-29.709,18.773-53.878,41.849-53.878v14.955
	C244.811,317.923,232.496,335.748,232.496,356.846z"/>
<path d="M185.702,153.935h-14.955c0-45.819,37.276-83.094,83.094-83.094c22.951,0,45.097,9.628,60.761,26.414l-10.934,10.202
	c-12.846-13.766-31.009-21.662-49.828-21.662C216.27,85.795,185.702,116.362,185.702,153.935z"/>
<path d="M336.936,153.935h-14.955c0-10.955-2.517-21.411-7.482-31.08l13.304-6.831C333.778,127.66,336.936,140.77,336.936,153.935z"
	/>
<path d="M175.933,460.441c-37.681-25.794-60.178-68.42-60.178-114.026h14.955c0,40.668,20.064,78.681,53.671,101.686
	L175.933,460.441z"/>
<path d="M253.842,484.504c-24.197,0-48.006-6.352-68.857-18.367l7.467-12.957c18.583,10.709,39.811,16.369,61.389,16.369V484.504z"
	/>
<path d="M270.792,483.473l-1.818-14.844c42.1-5.155,79.237-32.395,96.921-71.086l13.602,6.216
	c-9.683,21.185-24.722,39.737-43.494,53.653C316.895,471.577,294.346,480.587,270.792,483.473z"/>
<path d="M385.216,389.064l-14.225-4.616c3.97-12.237,5.984-25.033,5.984-38.033h14.955
	C391.93,360.984,389.671,375.333,385.216,389.064z"/>
<path d="M427.181,126.926c-24.264-0.898-43.271-20.623-43.271-44.904v-9.312c0-19.078-7.601-36.844-21.402-50.024
	c-13.793-13.174-31.903-19.948-51.02-19.066c-19.092,0.878-36.623,9.676-48.831,23.663L262.454,0l-14.955,0.112l0.326,43.393
	c-26.961,1.422-52.191,12.52-71.616,31.668c-21.253,20.95-32.959,48.922-32.959,78.763c0,1.259,0.021,2.513,0.063,3.763
	c1.06,31.66-8.713,63.625-27.518,90.005c-20.264,28.43-30.976,61.969-30.976,96.992c0,44.804,17.346,86.839,48.845,118.363
	c31.498,31.525,73.519,48.905,118.322,48.941c0.047,0,0.092,0,0.139,0c44.665,0,86.659-17.384,118.256-48.957
	c31.629-31.605,49.047-73.634,49.047-118.347c0-34.237-10.275-67.154-29.712-95.192c-18.202-26.253-27.244-57.929-25.464-89.191
	c0.163-2.863,0.216-5.775,0.158-8.657c-0.066-3.285-0.284-6.547-0.637-9.781h63.131L427.181,126.926z M377.425,258.024
	c17.695,25.523,27.048,55.494,27.048,86.673c0,40.715-15.862,78.989-44.663,107.768c-28.775,28.753-67.01,44.581-107.686,44.581
	c-0.04,0-0.087,0-0.127,0c-40.811-0.033-79.079-15.857-107.756-44.557c-28.676-28.7-44.469-66.981-44.469-107.793
	c0-31.894,9.751-62.431,28.199-88.312c20.7-29.039,31.455-64.264,30.287-99.187c-0.036-1.083-0.056-2.17-0.056-3.262
	c0-25.806,10.122-49.994,28.502-68.112c18.039-17.782,41.828-27.524,67.126-27.524c0.472,0,0.944,0.003,1.418,0.01
	c24.788,0.356,48.206,10.259,65.937,27.884c17.731,17.626,27.772,40.981,28.272,65.764c0.05,2.498,0.004,5.025-0.139,7.506
	C347.353,194.039,357.333,229.042,377.425,258.024z M361.088,126.92c-4.856-19.253-14.888-36.951-29.359-51.334
	c-17.335-17.232-39.385-28.075-63.13-31.259c9.323-15.11,25.569-24.939,43.577-25.768c14.988-0.694,29.193,4.616,40.004,14.942
	c10.818,10.332,16.775,24.256,16.775,39.21v9.312c0,17.896,7.746,33.933,20.14,44.899L361.088,126.92L361.088,126.92z"/>
<g>
</g>
<g>
</g>
<g>
</g>
<g>
</g>
<g>
</g>
<g>
</g>
<g>
</g>
<g>
</g>
<g>
</g>
<g>
</g>
<g>
</g>
<g>
</g>
<g>
</g>
<g>
</g>
<g>
</g>
</svg>
