<?xml version="1.0" encoding="iso-8859-1"?>
<!-- Generator: Adobe Illustrator 19.0.0, SVG Export Plug-In . SVG Version: 6.00 Build 0)  -->
<svg version="1.1" id="Layer_1" xmlns="http://www.w3.org/2000/svg" xmlns:xlink="http://www.w3.org/1999/xlink" x="0px" y="0px"
	 viewBox="0 0 512 512" style="enable-background:new 0 0 512 512;" xml:space="preserve">
<path style="fill:#C3E678;" d="M248.3,496.781C115.536,496.781,7.52,388.764,7.52,256S115.536,15.22,248.3,15.22
	S489.081,123.237,489.081,256S381.064,496.781,248.3,496.781z"/>
<path style="fill:#A5D76E;" d="M360.664,416.52c-132.764,0-240.78-108.016-240.78-240.781c0-55.575,19.11-106.668,50.857-147.462
	C75.961,60.659,7.52,150.396,7.52,256c0,132.764,108.016,240.781,240.78,240.781c77.19,0,145.831-36.656,189.924-93.318
	C413.848,411.79,387.823,416.52,360.664,416.52z"/>
<path style="fill:#FFFFFF;" d="M469.905,95.251l7.165-7.192c6.251-6.282,16.424-6.301,22.699-0.043
	c6.282,6.259,6.301,16.417,0.043,22.699L223.78,387.786c-3.125,3.141-7.233,4.716-11.341,4.724
	c-4.107,0.008-8.221-1.552-11.358-4.681L92.872,280.025c-6.282-6.259-6.301-16.417-0.043-22.699
	c6.251-6.282,16.424-6.301,22.699-0.043l96.839,96.475l235.006-235.891"/>
<path d="M474.758,173.654c-3.946,1.296-6.094,5.545-4.797,9.491c7.651,23.293,11.553,47.658,11.601,72.417
	c0.117,62.306-24.036,120.929-68.01,165.069s-102.505,68.514-164.812,68.63c-0.148,0-0.296,0-0.445,0
	C119.877,489.26,15.281,384.91,15.039,256.439C14.921,194.133,39.075,135.51,83.049,91.37s102.505-68.514,164.812-68.63
	c64.721-0.116,127.101,26.981,171.207,74.36c2.829,3.04,7.587,3.21,10.627,0.38c3.04-2.829,3.21-7.587,0.38-10.627
	c-23.059-24.769-50.37-44.259-81.178-57.927c-31.747-14.085-65.584-21.225-100.58-21.225c-0.16,0-0.323,0-0.483,0
	C181.511,7.825,119.206,33.771,72.397,80.756C25.587,127.742-0.124,190.144,0,256.466c0.125,66.323,26.069,128.628,73.055,175.437
	c46.873,46.698,109.084,72.398,175.231,72.396c0.158,0,0.322,0,0.48,0c66.323-0.124,128.628-26.069,175.437-73.055
	c46.809-46.985,72.52-109.387,72.395-175.71c-0.049-26.346-4.205-52.28-12.352-77.083
	C482.951,174.505,478.701,172.361,474.758,173.654z"/>
<path d="M505.079,82.691c-4.447-4.435-10.353-6.876-16.636-6.876c-0.016,0-0.031,0-0.047,0c-6.3,0.012-12.215,2.477-16.651,6.936
	l-7.165,7.192c-2.931,2.942-2.922,7.704,0.02,10.634c2.941,2.929,7.703,2.92,10.633-0.02l7.169-7.196
	c1.605-1.613,3.744-2.504,6.023-2.508c0.006,0,0.012,0,0.017,0c2.274,0,4.41,0.882,6.02,2.488c3.332,3.32,3.343,8.732,0.023,12.065
	L218.449,382.483c-1.605,1.613-3.744,2.504-6.022,2.508c-0.005,0-0.009,0-0.015,0c-2.275,0-4.412-0.883-6.023-2.489L98.179,274.699
	c-1.615-1.609-2.507-3.75-2.511-6.027c-0.004-2.277,0.879-4.422,2.492-6.04c1.605-1.613,3.745-2.504,6.024-2.508
	c0.006,0,0.011,0,0.017,0c2.273,0,4.409,0.882,6.019,2.488l96.838,96.475c1.41,1.404,3.318,2.193,5.307,2.193
	c0.005,0,0.009,0,0.014,0c1.994-0.004,3.905-0.8,5.313-2.213l235.006-235.89c2.931-2.941,2.922-7.703-0.02-10.633
	c-2.943-2.931-7.704-2.922-10.634,0.021L212.347,343.126l-91.508-91.166c-4.447-4.435-10.353-6.876-16.636-6.876
	c-0.015,0-0.031,0-0.046,0c-6.3,0.012-12.216,2.476-16.653,6.937c-4.444,4.461-6.886,10.384-6.874,16.68
	c0.012,6.295,2.475,12.209,6.936,16.652l108.206,107.8c4.448,4.435,10.355,6.877,16.641,6.877c0.014,0,0.027,0,0.041,0
	c6.301-0.012,12.217-2.477,16.653-6.938l276.032-277.07C514.311,106.815,514.283,91.863,505.079,82.691z"/>
<g>
</g>
<g>
</g>
<g>
</g>
<g>
</g>
<g>
</g>
<g>
</g>
<g>
</g>
<g>
</g>
<g>
</g>
<g>
</g>
<g>
</g>
<g>
</g>
<g>
</g>
<g>
</g>
<g>
</g>
</svg>
