<?xml version="1.0" encoding="iso-8859-1"?>
<!-- Generator: Adobe Illustrator 19.0.0, SVG Export Plug-In . SVG Version: 6.00 Build 0)  -->
<svg version="1.1" id="Capa_1" xmlns="http://www.w3.org/2000/svg" xmlns:xlink="http://www.w3.org/1999/xlink" x="0px" y="0px"
	 viewBox="0 0 512 512" style="enable-background:new 0 0 512 512;" xml:space="preserve">
<path style="fill:#80CBDE;" d="M362.448,126.169H73.774c-11.03,0-19.376,9.973-17.433,20.83l60.075,335.63
	c2.265,12.656,13.275,21.87,26.132,21.87h151.125c12.857,0,23.867-9.214,26.132-21.87L379.881,147
	C381.824,136.143,373.478,126.169,362.448,126.169z"/>
<path style="opacity:0.3;fill:#FFFFFF;enable-background:new    ;" d="M110.041,447.015l6.375,35.615
	c2.265,12.656,13.275,21.87,26.132,21.87h151.125c12.857,0,23.867-9.214,26.132-21.87l6.375-35.615H110.041z"/>
<polygon style="fill:#BD9D7D;" points="68.098,212.684 110.041,447.015 326.181,447.015 368.124,212.684 "/>
<g style="opacity:0.2;">
	<circle style="fill:#FFFFFF;" cx="222.919" cy="268.81" r="7.261"/>
	<circle style="fill:#FFFFFF;" cx="117.3" cy="290.6" r="7.261"/>
	<circle style="fill:#FFFFFF;" cx="316.079" cy="287.22" r="7.261"/>
	<circle style="fill:#FFFFFF;" cx="176.809" cy="410.67" r="7.261"/>
</g>
<path style="fill:#E8618C;" d="M296.875,250.693l-33.951-8.398L311.16,47.297C316.956,23.865,337.862,7.5,362.001,7.5h87.877
	c3.348,0,6.061,2.714,6.061,6.061v22.852c0,3.347-2.714,6.061-6.061,6.061H362c-8.018,0-14.963,5.436-16.889,13.22L296.875,250.693z
	"/>
<g>
	<path style="opacity:0.3;fill:#80CBDE;enable-background:new    ;" d="M362.448,126.169H73.774c-11.03,0-19.376,9.973-17.433,20.83
		l11.757,65.684h300.026L379.881,147C381.824,136.143,373.478,126.169,362.448,126.169z"/>
	<path style="fill:#80CBDE;" d="M201.298,237.864l-33.853,33.853c-5.715,5.715-14.982,5.715-20.697,0l-33.853-33.853
		c-5.715-5.715-5.715-14.982,0-20.697l33.853-33.853c5.715-5.715,14.982-5.715,20.697,0l33.853,33.853
		C207.012,222.882,207.012,232.149,201.298,237.864z"/>
</g>
<path style="opacity:0.4;fill:#FFFFFF;enable-background:new    ;" d="M201.298,237.864l-33.853,33.853
	c-5.715,5.715-14.982,5.715-20.697,0l-33.853-33.853c-5.715-5.715-5.715-14.982,0-20.697l33.853-33.853
	c5.715-5.715,14.982-5.715,20.697,0l33.853,33.853C207.012,222.882,207.012,232.149,201.298,237.864z"/>
<path style="fill:#80CBDE;" d="M315.667,191.829l16.374,44.988c2.764,7.595-1.152,15.993-8.747,18.758l-44.988,16.374
	c-7.595,2.764-15.993-1.152-18.758-8.747l-16.374-44.988c-2.764-7.595,1.152-15.993,8.747-18.758l44.988-16.374
	C304.505,180.318,312.903,184.234,315.667,191.829z"/>
<path style="opacity:0.4;fill:#FFFFFF;enable-background:new    ;" d="M315.667,191.829l16.374,44.988
	c2.764,7.595-1.152,15.993-8.747,18.758l-44.988,16.374c-7.595,2.764-15.993-1.152-18.758-8.747l-16.374-44.988
	c-2.764-7.595,1.152-15.993,8.747-18.758l44.988-16.374C304.505,180.318,312.903,184.234,315.667,191.829z"/>
<path style="opacity:0.1;enable-background:new    ;" d="M362.448,126.169h-41.666c11.03,0,19.376,9.973,17.433,20.83L278.14,482.63
	c-2.265,12.656-13.275,21.87-26.132,21.87h41.666c12.858,0,23.867-9.214,26.132-21.87L379.881,147
	C381.824,136.143,373.478,126.169,362.448,126.169z"/>
<path style="opacity:0.1;enable-background:new    ;" d="M362.001,7.5c-24.138,0-45.045,16.365-50.84,39.797l-2.871,11.606
	l34.375,6.684l2.447-9.893c1.926-7.784,8.871-13.22,16.889-13.22h6.576V7.5H362.001z"/>
<path d="M449.878,0H362c-27.596,0-51.496,18.709-58.121,45.497l-18.101,73.172H145.082c-4.142,0-7.5,3.357-7.5,7.5
	s3.358,7.5,7.5,7.5h136.986l-12.731,51.467l-19.981,7.273c-5.556,2.022-9.992,6.087-12.491,11.446
	c-0.204,0.437-0.369,0.884-0.543,1.329H199.92l-27.172-27.172c-4.181-4.182-9.74-6.484-15.652-6.484s-11.471,2.303-15.652,6.483
	l-27.173,27.173H74.375l-10.651-59.505c-0.534-2.984,0.275-6.028,2.221-8.352c1.945-2.324,4.798-3.657,7.829-3.657h36.268
	c4.142,0,7.5-3.357,7.5-7.5c0-4.143-3.358-7.5-7.5-7.5H73.774c-7.483,0-14.53,3.291-19.332,9.03
	c-4.803,5.739-6.801,13.256-5.483,20.622l60.075,335.63C111.942,500.204,126.037,512,142.548,512h151.126
	c16.511,0,30.605-11.796,33.515-28.049l52.429-292.915c0.729-4.077-1.984-7.975-6.061-8.704c-4.072-0.731-7.974,1.983-8.704,6.062
	l-3.005,16.79H328.51l-5.794-15.92c-0.514-1.412-1.162-2.749-1.928-4.003l12.762-51.592h28.899c3.03,0,5.884,1.333,7.829,3.657
	s2.755,5.369,2.221,8.352l-2.171,12.133c-0.729,4.077,1.984,7.975,6.062,8.704c0.447,0.08,0.892,0.118,1.33,0.118
	c3.563,0,6.724-2.549,7.374-6.18l2.171-12.133c1.318-7.366-0.68-14.883-5.483-20.622c-4.803-5.739-11.85-9.03-19.332-9.03h-25.19
	l15.132-61.173c1.096-4.429,5.047-7.521,9.609-7.521h87.877c7.478,0,13.561-6.083,13.561-13.561V13.561
	C463.439,6.083,457.355,0,449.878,0z M297.521,133.669h20.576L307.75,175.5c-4.392-1.211-9.038-1.055-13.405,0.534l-8.026,2.921
	L297.521,133.669z M118.199,222.471l33.853-33.854c1.348-1.348,3.139-2.09,5.045-2.09c1.906,0,3.697,0.742,5.045,2.091
	l33.853,33.853c1.348,1.348,2.09,3.139,2.09,5.045c0,1.905-0.742,3.697-2.09,5.046l0.001-0.001l-33.853,33.853
	c-2.782,2.783-7.31,2.781-10.091,0L118.2,232.562c-1.348-1.349-2.09-3.141-2.09-5.046
	C116.109,225.609,116.851,223.818,118.199,222.471z M338.35,251.177c2.499-5.358,2.761-11.369,0.739-16.926l-5.12-14.067h25.193
	l-39.258,219.332h-146.08c-4.142,0-7.5,3.357-7.5,7.5s3.358,7.5,7.5,7.5h143.395l-4.796,26.793
	C310.796,490.4,302.91,497,293.674,497H142.548c-9.237,0-17.122-6.6-18.749-15.691l-4.796-26.793h24.078c4.142,0,7.5-3.357,7.5-7.5
	s-3.358-7.5-7.5-7.5h-26.763L77.06,220.184h25.314c-0.816,2.328-1.265,4.793-1.265,7.332c0,5.912,2.302,11.471,6.483,15.652
	l33.852,33.853c4.315,4.314,9.983,6.472,15.652,6.472c5.668,0,11.336-2.157,15.652-6.472l33.853-33.853v-0.001
	c4.181-4.181,6.483-9.739,6.483-15.651c0-2.539-0.449-5.004-1.265-7.332h24.123c0.066,0.198,0.113,0.399,0.184,0.596l16.375,44.988
	c3.269,8.979,11.777,14.565,20.822,14.565c2.508,0,5.059-0.43,7.549-1.336l44.987-16.375
	C331.415,260.601,335.851,256.536,338.35,251.177z M324.993,239.382c0.652,1.791,0.567,3.729-0.238,5.456
	c-0.805,1.727-2.235,3.037-4.026,3.688l-44.988,16.375c-3.695,1.346-7.799-0.567-9.145-4.265l-16.375-44.988
	c-0.652-1.791-0.567-3.728,0.238-5.455c0.806-1.728,2.235-3.038,4.026-3.689l23.614-8.595c0.002-0.001,0.004-0.001,0.005-0.002
	l21.369-7.778c0.796-0.29,1.622-0.435,2.444-0.435c1.028,0,2.052,0.226,3.011,0.673c1.727,0.805,3.037,2.235,3.689,4.026
	L324.993,239.382z M321.808,118.669h-20.576l12.626-51.042l19.631,3.817L321.808,118.669z M337.831,53.894l-0.735,2.971
	l-19.632-3.817l0.977-3.948c1.406-5.687,3.853-10.887,7.106-15.421l14.524,14.395C339.102,49.879,338.342,51.828,337.831,53.894z
	 M361.077,35.014c-3.649,0.134-7.12,1.051-10.236,2.613L336.215,23.13c7.112-4.99,15.696-7.925,24.862-8.111V35.014z
	 M448.439,34.975h-72.362V15h72.362V34.975z M295.98,355.755c4.142,0,7.5-3.357,7.5-7.5v-12.927c0-4.143-3.358-7.5-7.5-7.5
	s-7.5,3.357-7.5,7.5v12.927C288.48,352.397,291.838,355.755,295.98,355.755z M140.242,327.828c-4.142,0-7.5,3.357-7.5,7.5v12.927
	c0,4.143,3.358,7.5,7.5,7.5s7.5-3.357,7.5-7.5v-12.927C147.742,331.185,144.383,327.828,140.242,327.828z M243.567,343.173
	c-3.122-2.722-7.86-2.396-10.581,0.727c-3.755,4.31-9.178,6.781-14.876,6.781c-5.698,0-11.12-2.472-14.876-6.781
	c-2.722-3.122-7.459-3.448-10.581-0.727c-3.123,2.722-3.448,7.459-0.727,10.582c6.605,7.579,16.149,11.926,26.184,11.926
	c10.036,0,19.58-4.347,26.185-11.926C247.016,350.632,246.69,345.895,243.567,343.173z"/>
<g>
</g>
<g>
</g>
<g>
</g>
<g>
</g>
<g>
</g>
<g>
</g>
<g>
</g>
<g>
</g>
<g>
</g>
<g>
</g>
<g>
</g>
<g>
</g>
<g>
</g>
<g>
</g>
<g>
</g>
</svg>
