<?xml version="1.0" encoding="iso-8859-1"?>
<!-- Generator: Adobe Illustrator 19.0.0, SVG Export Plug-In . SVG Version: 6.00 Build 0)  -->
<svg version="1.1" id="Layer_1" xmlns="http://www.w3.org/2000/svg" xmlns:xlink="http://www.w3.org/1999/xlink" x="0px" y="0px"
	 viewBox="0 0 512 512" style="enable-background:new 0 0 512 512;" xml:space="preserve">
<path style="fill:#314E55;" d="M507.918,196.056L261.398,25.389c-3.241-2.25-7.556-2.25-10.796,0L4.082,196.056
	c-3.407,2.361-4.889,6.667-3.648,10.625c1.231,3.958,4.898,6.653,9.046,6.653h47.408v265.483c0,5.236,4.241,9.482,9.482,9.482
	h142.223c5.241,0,9.482-4.245,9.482-9.482V336.594h75.852v142.223c0,5.236,4.241,9.482,9.482,9.482H445.63
	c5.241,0,9.482-4.245,9.482-9.482V213.334h47.408c4.148,0,7.815-2.694,9.046-6.653C512.807,202.723,511.325,198.418,507.918,196.056
	z"/>
<path style="fill:#E9E7D1;" d="M436.149,469.335h-123.26V327.113c0-5.236-4.241-9.482-9.482-9.482h-94.815
	c-5.241,0-9.482,4.245-9.482,9.482v142.223H75.851V213.334h360.298V469.335z"/>
<polygon style="fill:#E65F58;" points="445.63,194.371 66.369,194.371 39.832,194.371 256,44.718 472.167,194.371 "/>
<g>
</g>
<g>
</g>
<g>
</g>
<g>
</g>
<g>
</g>
<g>
</g>
<g>
</g>
<g>
</g>
<g>
</g>
<g>
</g>
<g>
</g>
<g>
</g>
<g>
</g>
<g>
</g>
<g>
</g>
</svg>
