<?xml version="1.0" encoding="iso-8859-1"?>
<!-- Generator: Adobe Illustrator 19.0.0, SVG Export Plug-In . SVG Version: 6.00 Build 0)  -->
<svg version="1.1" id="Layer_1" xmlns="http://www.w3.org/2000/svg" xmlns:xlink="http://www.w3.org/1999/xlink" x="0px" y="0px"
	 viewBox="0 0 512 512" style="enable-background:new 0 0 512 512;" xml:space="preserve">
<path style="fill:#3C1146;" d="M423.269,512H88.731c-26.607,0-48.253-21.647-48.253-48.253V48.253C40.478,21.647,62.125,0,88.731,0
	h334.538c26.607,0,48.253,21.647,48.253,48.253v273.242c0,7.641-6.195,13.838-13.838,13.838c-7.643,0-13.838-6.197-13.838-13.838
	V48.253c0-11.346-9.231-20.577-20.577-20.577H88.731c-11.346,0-20.577,9.231-20.577,20.577v415.495
	c0,11.346,9.231,20.577,20.577,20.577h334.538c11.346,0,20.577-9.231,20.577-20.577v-56.251c0-7.641,6.195-13.838,13.838-13.838
	c7.643,0,13.838,6.197,13.838,13.838v56.249C471.522,490.353,449.875,512,423.269,512z"/>
<path style="fill:#D4A8B4;" d="M88.731,498.162h64.457c0.277-2.795,0.415-5.632,0.415-8.496c0-48.723-39.645-88.368-88.368-88.368
	c-3.695,0-7.348,0.221-10.918,0.664v61.786C54.316,482.747,69.732,498.162,88.731,498.162z"/>
<path style="fill:#3C1146;" d="M153.188,512H88.731c-26.606,0-48.253-21.647-48.253-48.253v-61.786
	c0-6.984,5.203-12.872,12.133-13.733c4.117-0.511,8.364-0.771,12.623-0.771c56.357,0,102.206,45.85,102.206,102.206
	c0,3.31-0.163,6.627-0.483,9.861C166.256,506.607,160.3,512,153.188,512z M68.154,415.192v48.556
	c0,11.346,9.23,20.577,20.577,20.577h50.846C136.896,446.673,106.122,416.663,68.154,415.192z"/>
<path style="fill:#D4A8B4;" d="M65.234,110.703c48.723,0,88.368-39.645,88.368-88.368c0-2.864-0.138-5.701-0.415-8.496H88.731
	c-18.999,0-34.415,15.415-34.415,34.415v61.786C57.886,110.481,61.54,110.703,65.234,110.703z"/>
<path style="fill:#3C1146;" d="M65.234,124.541c-4.254,0-8.498-0.259-12.617-0.769c-6.931-0.857-12.137-6.747-12.137-13.733V48.253
	C40.478,21.647,62.125,0,88.731,0h64.457c7.114,0,13.068,5.394,13.77,12.473c0.32,3.235,0.483,6.552,0.483,9.861
	C167.441,78.69,121.59,124.541,65.234,124.541z M88.731,27.676c-11.346,0-20.577,9.231-20.577,20.577v48.556
	c37.968-1.471,68.742-31.481,71.421-69.132H88.731z"/>
<path style="fill:#D4A8B4;" d="M358.826,498.162h64.443c19.013,0,34.415-15.415,34.415-34.415v-61.786
	c-3.57-0.443-7.21-0.664-10.904-0.664c-48.737,0-88.368,39.645-88.368,88.368C358.411,492.53,358.549,495.367,358.826,498.162z"/>
<path style="fill:#3C1146;" d="M423.269,512h-64.443c-7.114,0-13.068-5.394-13.77-12.473c-0.32-3.23-0.483-6.548-0.483-9.862
	c0-56.357,45.849-102.205,102.206-102.205c4.244,0,8.484,0.259,12.603,0.769c6.931,0.857,12.137,6.747,12.137,13.733v61.786
	C471.522,490.353,449.875,512,423.269,512z M372.438,484.324h50.831c11.346,0,20.577-9.231,20.577-20.577v-48.556
	C405.885,416.67,375.117,446.679,372.438,484.324z"/>
<path style="fill:#D4A8B4;" d="M446.78,110.703c3.695,0,7.334-0.221,10.904-0.664V48.253c0-18.999-15.402-34.415-34.415-34.415
	h-64.443c-0.277,2.795-0.415,5.632-0.415,8.496C358.411,71.057,398.043,110.703,446.78,110.703z"/>
<g>
	<path style="fill:#3C1146;" d="M446.78,124.541c-56.357,0-102.206-45.85-102.206-102.206c0-3.316,0.162-6.632,0.483-9.861
		C345.758,5.393,351.712,0,358.826,0h64.443c26.607,0,48.253,21.647,48.253,48.253v61.786c0,6.984-5.203,12.872-12.133,13.733
		C455.272,124.282,451.029,124.541,446.78,124.541z M372.438,27.676c2.679,37.647,33.446,67.655,71.407,69.132V48.253
		c0-11.346-9.231-20.577-20.577-20.577H372.438z"/>
	<path style="fill:#3C1146;" d="M152.204,210.234c-1.622,2.744-4.117,3.617-6.487,3.617c-2.246,0-4.615-0.749-6.112-3.617
		l-11.851-21.706v48.027c0,3.992-4.865,5.988-9.729,5.988c-4.865,0-9.731-1.995-9.731-5.988v-75.472
		c0-7.111,4.865-9.729,9.731-9.729c6.985,0,9.98,0.747,15.094,9.729l12.85,22.455l12.848-22.455
		c5.114-8.982,8.108-9.729,15.094-9.729c4.989,0,9.729,2.619,9.729,9.729v75.472c0,3.992-4.865,5.988-9.729,5.988
		c-4.865,0-9.731-1.995-9.731-5.988v-46.78L152.204,210.234z"/>
	<path style="fill:#3C1146;" d="M216.577,189.401h18.712c3.743,0,5.863,3.617,5.863,7.609c0,3.368-1.746,7.359-5.863,7.359h-18.712
		v21.208h33.432c3.743,0,5.863,3.992,5.863,8.607c0,3.992-1.746,8.358-5.863,8.358H205.6c-4.241,0-8.483-1.995-8.483-5.988v-79.213
		c0-3.992,4.241-5.988,8.483-5.988h44.41c4.117,0,5.863,4.364,5.863,8.357c0,4.616-2.12,8.609-5.863,8.609h-33.432V189.401z"/>
	<path style="fill:#3C1146;" d="M307.521,237.304l-23.701-43.162v42.413c0,3.992-4.865,5.988-9.729,5.988
		c-4.865,0-9.731-1.995-9.731-5.988v-79.213c0-4.118,4.865-5.988,9.731-5.988c6.985,0,9.605,0.623,14.346,9.729l20.209,38.545
		v-42.413c0-4.117,4.865-5.862,9.729-5.862c4.865,0,9.731,1.746,9.731,5.862v79.339c0,3.992-4.865,5.988-9.731,5.988
		C313.884,242.543,309.891,241.671,307.521,237.304z"/>
	<path style="fill:#3C1146;" d="M384.619,157.216c0-4.117,4.741-5.862,9.731-5.862c4.741,0,9.731,1.746,9.731,5.862v56.635
		c0,21.457-13.846,29.44-31.437,29.44c-17.714,0-31.435-7.984-31.435-29.44v-56.635c0-4.117,4.741-5.862,9.731-5.862
		c4.739,0,9.729,1.746,9.729,5.862v56.635c0,8.483,4.492,12.475,11.975,12.475c7.485,0,11.975-3.992,11.975-12.475L384.619,157.216
		L384.619,157.216z"/>
	<path style="fill:#3C1146;" d="M330.724,315.501H181.276c-7.643,0-13.838-6.197-13.838-13.838s6.195-13.838,13.838-13.838h149.449
		c7.643,0,13.838,6.197,13.838,13.838S338.367,315.501,330.724,315.501z"/>
</g>
<g>
</g>
<g>
</g>
<g>
</g>
<g>
</g>
<g>
</g>
<g>
</g>
<g>
</g>
<g>
</g>
<g>
</g>
<g>
</g>
<g>
</g>
<g>
</g>
<g>
</g>
<g>
</g>
<g>
</g>
</svg>
