<?xml version="1.0" encoding="iso-8859-1"?>
<!-- Generator: Adobe Illustrator 19.0.0, SVG Export Plug-In . SVG Version: 6.00 Build 0)  -->
<svg version="1.1" id="Capa_1" xmlns="http://www.w3.org/2000/svg" xmlns:xlink="http://www.w3.org/1999/xlink" x="0px" y="0px"
	 viewBox="0 0 511.996 511.996" style="enable-background:new 0 0 511.996 511.996;" xml:space="preserve">
<path style="fill:#DDDDDD;" d="M379.707,209.71l55.848,20.327l55.29-129.999c8.358-19.652-1.477-42.293-21.545-49.597l0,0
	c-20.067-7.304-42.155,3.719-48.385,24.145L379.707,209.71z"/>
<path style="opacity:0.1;enable-background:new    ;" d="M412.698,214.886c-0.827,0-1.669-0.138-2.493-0.429
	c-3.907-1.377-5.957-5.66-4.58-9.566l32.745-92.888c1.376-3.906,5.661-5.958,9.566-4.58c3.907,1.377,5.957,5.66,4.58,9.566
	l-32.745,92.888C418.685,212.96,415.79,214.886,412.698,214.886z"/>
<polygon style="opacity:0.1;enable-background:new    ;" points="389.808,176.586 379.707,209.71 414.084,222.222 438.878,222.222 
	458.288,176.586 "/>
<g>
	<path style="fill:#9BD3E0;" d="M7.566,219.252C14.6,302.983,63.016,374.94,132.29,414.608h247.416
		c69.275-39.668,117.691-111.624,124.724-195.356c0.955-11.37-7.969-21.148-19.379-21.148H26.946
		C15.535,198.104,6.611,207.882,7.566,219.252z"/>
	<path style="fill:#9BD3E0;" d="M363.393,463.839H148.604c-9.01,0-16.313-7.304-16.313-16.313v-32.918h247.416v32.917
		C379.707,456.535,372.403,463.839,363.393,463.839z"/>
</g>
<path style="opacity:0.1;enable-background:new    ;" d="M363.393,463.839H148.604c-9.01,0-16.313-7.304-16.313-16.313v-32.918
	h247.416v32.917C379.707,456.535,372.403,463.839,363.393,463.839z"/>
<path style="opacity:0.1;enable-background:new    ;" d="M333.462,414.607v32.917c0,9.01-7.304,16.313-16.313,16.313h46.244
	c9.009,0,16.313-7.304,16.313-16.313v-32.917H333.462z"/>
<path style="fill:#FAD97E;" d="M485.051,198.104H26.946c-11.41,0-20.334,9.778-19.379,21.148c0.945,11.256,2.663,22.29,5.054,33.07
	c14.038-4.371,29.965-1.008,41.083,10.11c15.96,15.961,41.837,15.961,57.799,0l0,0c15.96-15.961,41.837-15.961,57.799,0l0,0
	c15.96,15.961,41.837,15.961,57.799,0l0,0c15.96-15.961,41.837-15.961,57.799,0l0,0c15.96,15.961,41.837,15.961,57.799,0
	c15.961-15.961,41.837-15.961,57.799,0c15.961,15.961,41.837,15.961,57.799,0c11.118-11.118,27.045-14.481,41.083-10.11
	c2.391-10.781,4.108-21.814,5.054-33.07C505.386,207.882,496.461,198.104,485.051,198.104z"/>
<path style="opacity:0.1;enable-background:new    ;" d="M485.051,198.104h-46.244c11.41,0,20.334,9.778,19.379,21.148
	c-7.033,83.731-55.45,155.688-124.724,195.356h46.244c69.275-39.668,117.691-111.624,124.724-195.356
	C505.386,207.882,496.461,198.104,485.051,198.104z"/>
<g>
	<path style="fill:#F15B70;" d="M255.999,360.963L255.999,360.963c-13.029,0-23.591-10.562-23.591-23.59v-17.281
		c0-3.476,2.818-6.294,6.295-6.294h34.592c3.476,0,6.294,2.818,6.294,6.294v17.281C279.589,350.4,269.027,360.963,255.999,360.963z"
		/>
	<g style="opacity:0.3;">
		<ellipse style="fill:#F15B70;" cx="176.879" cy="356.508" rx="33.865" ry="14.694"/>
		<ellipse style="fill:#F15B70;" cx="335.119" cy="356.508" rx="33.865" ry="14.694"/>
	</g>
</g>
<path d="M255.318,161.316c-1.85,3.706-0.345,8.21,3.361,10.061c1.076,0.536,2.218,0.791,3.344,0.791
	c2.753,0,5.403-1.522,6.717-4.152c8.08-16.189,5.148-35.893-7.296-49.027c-5.393-5.692-8.124-13.14-7.69-20.97
	c0.434-7.83,3.971-14.931,9.96-19.993c3.163-2.674,3.559-7.406,0.886-10.569c-2.673-3.162-7.405-3.561-10.569-0.886
	c-9.172,7.753-14.589,18.627-15.253,30.619c-0.664,11.991,3.519,23.396,11.779,32.115
	C258.679,137.88,260.593,150.746,255.318,161.316z M172.428,161.316c-1.85,3.707-0.345,8.211,3.361,10.061
	c1.076,0.536,2.218,0.791,3.343,0.791c2.753,0,5.404-1.522,6.716-4.152c8.08-16.19,5.148-35.893-7.296-49.027
	c-5.393-5.692-8.124-13.14-7.691-20.97c0.434-7.83,3.971-14.931,9.96-19.993c3.163-2.674,3.56-7.405,0.886-10.569
	c-2.675-3.163-7.405-3.561-10.57-0.886c-9.172,7.753-14.59,18.627-15.254,30.619c-0.664,11.991,3.519,23.396,11.779,32.115
	C175.789,137.88,177.704,150.746,172.428,161.316z M338.207,161.316c-1.85,3.706-0.345,8.21,3.361,10.061
	c1.076,0.536,2.218,0.791,3.344,0.791c2.753,0,5.403-1.522,6.717-4.152c8.08-16.189,5.148-35.893-7.296-49.027
	c-5.393-5.692-8.124-13.14-7.69-20.97s3.972-14.931,9.961-19.993c3.163-2.674,3.561-7.405,0.886-10.569
	c-2.673-3.162-7.405-3.561-10.569-0.886c-9.172,7.753-14.59,18.627-15.254,30.618c-0.665,11.992,3.519,23.397,11.778,32.116
	C341.569,137.88,343.483,150.746,338.207,161.316z M504.867,199.302c-5.083-5.528-12.306-8.699-19.815-8.699h-24.576l37.27-87.631
	c4.857-11.417,4.809-23.973-0.135-35.353c-4.943-11.38-14.087-19.984-25.745-24.227c-11.66-4.241-24.196-3.529-35.297,2.011
	c-11.102,5.541-19.209,15.127-22.827,26.994l-36.049,118.206h-275.65c-4.142,0-7.5,3.357-7.5,7.5s3.358,7.5,7.5,7.5h281.179
	c0.009,0,0.018,0.002,0.026,0.002s0.016-0.002,0.024-0.002h65.781c0.044,0.001,0.088,0,0.132,0h35.865
	c3.374,0,6.489,1.368,8.774,3.853c2.305,2.507,3.417,5.763,3.131,9.168c-0.699,8.317-1.833,16.583-3.383,24.761
	c-14.8-1.985-29.798,2.957-40.584,13.744c-6.303,6.304-14.683,9.774-23.596,9.774s-17.293-3.471-23.595-9.774
	c-9.137-9.136-21.283-14.167-34.203-14.167s-25.066,5.031-34.202,14.167c-6.303,6.304-14.683,9.774-23.596,9.774
	s-17.293-3.471-23.595-9.774c-9.137-9.136-21.283-14.167-34.203-14.167c-12.92,0-25.066,5.031-34.202,14.167
	c-6.303,6.304-14.683,9.774-23.596,9.774c-8.913,0-17.293-3.471-23.596-9.774c-9.136-9.136-21.283-14.167-34.203-14.167
	s-25.066,5.031-34.202,14.167c-6.303,6.304-14.683,9.774-23.596,9.774s-17.293-3.471-23.596-9.773
	c-10.781-10.783-25.764-15.723-40.559-13.747c-1.547-8.145-2.705-16.402-3.407-24.759c-0.286-3.405,0.826-6.661,3.131-9.168
	c2.284-2.484,5.4-3.853,8.774-3.853h36.758c4.142,0,7.5-3.357,7.5-7.5s-3.358-7.5-7.5-7.5H26.946c-7.509,0-14.732,3.171-19.815,8.7
	c-5.104,5.551-7.669,13.051-7.037,20.576c6.932,82.535,53.438,156.612,124.697,199.03v28.615c0,13.131,10.683,23.813,23.813,23.813
	h214.789c13.131,0,23.813-10.683,23.813-23.813V418.91c41.312-24.588,74.766-60.029,96.916-102.739
	c1.906-3.678,0.472-8.204-3.205-10.111c-3.675-1.905-8.203-0.472-10.111,3.205c-21.19,40.858-53.37,74.648-93.131,97.842h-178.37
	c-4.142,0-7.5,3.357-7.5,7.5s3.358,7.5,7.5,7.5h172.901v25.417c0,4.859-3.954,8.813-8.813,8.813H148.604
	c-4.86,0-8.813-3.954-8.813-8.813v-25.417h23.528c4.142,0,7.5-3.357,7.5-7.5s-3.358-7.5-7.5-7.5h-28.973
	c-56.48-32.942-96.731-86.863-112.621-148.998c9.778-0.916,19.557,2.51,26.675,9.628c9.136,9.136,21.282,14.167,34.202,14.167
	s25.066-5.031,34.202-14.167c6.303-6.304,14.683-9.774,23.596-9.774c8.914,0,17.293,3.471,23.596,9.774
	c9.136,9.136,21.282,14.167,34.202,14.167s25.066-5.031,34.202-14.167c6.303-6.304,14.683-9.774,23.596-9.774
	s17.293,3.471,23.596,9.773c9.136,9.137,21.282,14.168,34.202,14.168c12.92,0,25.066-5.031,34.203-14.168
	c6.302-6.303,14.682-9.773,23.595-9.773s17.293,3.471,23.596,9.773c9.136,9.137,21.282,14.168,34.202,14.168
	c12.92,0,25.066-5.031,34.203-14.167c7.126-7.127,16.916-10.555,26.707-9.627c-1.631,6.393-3.519,12.717-5.671,18.948
	c-1.353,3.916,0.726,8.186,4.641,9.537c0.811,0.28,1.637,0.413,2.448,0.413c3.11,0,6.018-1.949,7.089-5.054
	c6.908-20.007,11.313-40.892,13.093-62.075C512.536,212.353,509.971,204.854,504.867,199.302z M444.175,190.603h-50.8
	l34.714-113.831c2.406-7.89,7.796-14.264,15.177-17.947c7.382-3.683,15.718-4.16,23.469-1.337
	c7.752,2.821,13.831,8.542,17.118,16.108c3.286,7.566,3.318,15.914,0.09,23.505L444.175,190.603z M166.556,312.717v13.976
	c0,4.143,3.358,7.5,7.5,7.5s7.5-3.357,7.5-7.5v-13.976c0-4.142-3.358-7.5-7.5-7.5C169.914,305.217,166.556,308.574,166.556,312.717z
	 M330.442,312.717v13.976c0,4.143,3.357,7.5,7.5,7.5s7.5-3.357,7.5-7.5v-13.976c0-4.142-3.357-7.5-7.5-7.5
	S330.442,308.574,330.442,312.717z M238.703,306.296c-7.606,0-13.794,6.189-13.794,13.795v17.28
	c0,17.144,13.947,31.091,31.09,31.091c17.144,0,31.091-13.947,31.091-31.091v-17.28c0-7.606-6.189-13.795-13.795-13.795H238.703z
	 M272.09,337.371c0,8.872-7.219,16.091-16.091,16.091c-8.872,0-16.09-7.219-16.09-16.091v-16.075h32.181V337.371z"/>
<g>
</g>
<g>
</g>
<g>
</g>
<g>
</g>
<g>
</g>
<g>
</g>
<g>
</g>
<g>
</g>
<g>
</g>
<g>
</g>
<g>
</g>
<g>
</g>
<g>
</g>
<g>
</g>
<g>
</g>
</svg>
