<?xml version="1.0" encoding="iso-8859-1"?>
<!-- Generator: Adobe Illustrator 19.0.0, SVG Export Plug-In . SVG Version: 6.00 Build 0)  -->
<svg xmlns="http://www.w3.org/2000/svg" xmlns:xlink="http://www.w3.org/1999/xlink" version="1.1" id="Layer_1" x="0px" y="0px" viewBox="0 0 512.003 512.003" style="enable-background:new 0 0 512.003 512.003;" xml:space="preserve" width="512px" height="512px">
<g>
	<g>
		<path d="M450.901,298.348c-3.344-0.281-7.031-0.406-11.062-0.406c-26.249,0-67.124,5.594-123.123,15.469    c-0.469-1.328-1.109-2.594-1.875-3.828c43.624-34.359,101.155-91.343,101.155-153.132c0-48.109-39-87.108-87.109-87.108    c-24.374,0-46.421,10.016-62.218,26.148c-15.813-16.133-37.852-26.148-62.226-26.148c-48.109,0-87.108,39-87.108,87.108    c0,46.609,32.733,90.483,67.546,123.976c-25.641-1.391-53.226-2.891-75.999-4.141c-3.891-0.219-7.656-0.312-11.281-0.312    C16.797,275.974,0,326.412,0,326.412v52.232c0.031,29.953,92.351,44.641,92.663,44.688    c73.335,14.484,163.467,19.328,163.467,19.328s246.991-97.03,253.491-102.687C516.088,334.3,513.245,303.348,450.901,298.348z     M138.67,156.45c0-36.273,29.507-65.78,65.773-65.78c17.82,0,34.507,7.016,46.983,19.757l15.243,15.547l15.234-15.555    c12.469-12.734,29.156-19.75,46.983-19.75c36.266,0,65.781,29.507,65.781,65.78c0,43.476-36.547,86.226-67.203,114.429    c-10.124,9.312-20.312,17.703-29.687,24.938c-14.75-7.531-32.328-11-32.328-11s-19.579-1.062-46.664-2.531    c-4.084-3.469-8.225-7.094-12.373-10.898C175.506,243.059,138.67,200.122,138.67,156.45z M252.708,421.096    c-19.078-1.203-94.187-6.5-155.904-18.688l-0.398-0.094l-0.391-0.062c-0.18-0.016-18.039-2.891-37.18-8.5    c-27.093-7.922-35.421-14.906-37.499-17.094V330.94c1.602-2.906,5.086-8.296,11.273-13.749    c6.305-5.562,14.031-10.031,22.977-13.312c11.953-4.359,26.085-6.578,42.015-6.578c3.281,0,6.688,0.094,10.117,0.281    c56.249,3.078,141.896,7.734,154.897,8.453c2.672,0.594,9.148,2.188,16.195,4.781c6.938,2.562,11.484,5.031,14.281,6.922    c-22.219,5.266-89.101,20.171-136.539,20.702c-5.836,0.062-10.546,4.812-10.546,10.656c0,5.891,4.773,10.672,10.664,10.672    c0.039,0,0.078-0.016,0.117-0.016v0.016c25.258-0.297,58.039-4.281,97.437-11.859c22.899-4.422,41.086-8.734,48.305-10.5    l0.047,0.156l17.828-3.156c58.593-10.312,96.562-15.124,119.436-15.124c3.469,0,6.609,0.094,9.344,0.312    c18.969,1.531,29.469,5.562,34.938,8.687C443.401,345.628,329.152,391.033,252.708,421.096z" fill="#ffffff"/>
	</g>
</g>
<g>
</g>
<g>
</g>
<g>
</g>
<g>
</g>
<g>
</g>
<g>
</g>
<g>
</g>
<g>
</g>
<g>
</g>
<g>
</g>
<g>
</g>
<g>
</g>
<g>
</g>
<g>
</g>
<g>
</g>
</svg>
