<?xml version="1.0" encoding="iso-8859-1"?>
<!-- Generator: Adobe Illustrator 19.0.0, SVG Export Plug-In . SVG Version: 6.00 Build 0)  -->
<svg xmlns="http://www.w3.org/2000/svg" xmlns:xlink="http://www.w3.org/1999/xlink" version="1.1" id="Capa_1" x="0px" y="0px" viewBox="0 0 54 54" style="enable-background:new 0 0 54 54;" xml:space="preserve" width="512px" height="512px">
<g>
	<path d="M53.569,20.678l-26-18c-0.342-0.237-0.797-0.237-1.139,0l-26,18c-0.359,0.249-0.516,0.703-0.385,1.121   C0.176,22.216,0.562,22.5,1,22.5h5v28c0,0.552,0.447,1,1,1h15c0.553,0,1-0.448,1-1v-15h8v15c0,0.552,0.447,1,1,1h15   c0.553,0,1-0.448,1-1v-28h5c0.438,0,0.824-0.284,0.954-0.702C54.085,21.381,53.929,20.927,53.569,20.678z M46,49.5H33v-15   c0-0.552-0.447-1-1-1H22c-0.553,0-1,0.448-1,1v15H8v-27h38V49.5z M47,20.5H7H4.201L27,4.716L49.799,20.5L47,20.5L47,20.5z" fill="#ffffff"/>
</g>
<g>
</g>
<g>
</g>
<g>
</g>
<g>
</g>
<g>
</g>
<g>
</g>
<g>
</g>
<g>
</g>
<g>
</g>
<g>
</g>
<g>
</g>
<g>
</g>
<g>
</g>
<g>
</g>
<g>
</g>
</svg>
